<?xml version="1.0" standalone="no"?><!DOCTYPE svg PUBLIC "-//W3C//DTD SVG 1.1//EN" "http://www.w3.org/Graphics/SVG/1.1/DTD/svg11.dtd"><svg t="1701521135162" class="icon" viewBox="0 0 1024 1024" version="1.1" xmlns="http://www.w3.org/2000/svg" p-id="1888" xmlns:xlink="http://www.w3.org/1999/xlink" width="200" height="200"><path d="M930 747.62c-2.82-64.78-15.24-231.26-69.87-378.77A58.22 58.22 0 0 0 805.47 331H627.58v-17.12a29.43 29.43 0 0 0-29.43-29.43H217.57a29.43 29.43 0 0 0-29.43 29.43v435.28a29.43 29.43 0 0 0 29.43 29.42h410v-0.23h272.95A29.46 29.46 0 0 0 930 747.62z" fill="#B9D6F9" p-id="1889"></path><path d="M720 839.76a98 98 0 1 1 98-98 98.16 98.16 0 0 1-98 98z m0-141.09a43 43 0 1 0 43 43 43.1 43.1 0 0 0-43-43zM284.45 839.76a98 98 0 1 1 98.05-98 98.15 98.15 0 0 1-98.05 98z m0-141.09a43 43 0 1 0 43.05 43 43.09 43.09 0 0 0-43.05-43z" fill="#1060C1" p-id="1890"></path><path d="M567 749.45H361.67a27.5 27.5 0 0 1 0-55h177.87V257.24a1.94 1.94 0 0 0-1.93-1.93H157a1.94 1.94 0 0 0-1.93 1.93v435.28a1.94 1.94 0 0 0 1.93 1.93h56.89a27.5 27.5 0 0 1 0 55H157a57 57 0 0 1-56.93-56.93V257.24A57 57 0 0 1 157 200.31h380.61a57 57 0 0 1 56.93 56.93V722A27.5 27.5 0 0 1 567 749.45z" fill="#1060C1" p-id="1891"></path><path d="M840 749.21h-49.15a27.5 27.5 0 1 1 0-55H840a1.89 1.89 0 0 0 1.44-0.61 1.82 1.82 0 0 0 0.54-1.43c-2.76-63.48-14.94-226.66-68.18-370.41a30.82 30.82 0 0 0-28.85-19.93H568.21a27.5 27.5 0 0 1 0-55h176.71a86 86 0 0 1 80.42 55.83c55.95 151 68.68 321 71.56 387.12a57 57 0 0 1-56.9 59.43zM652.32 749.21h-89a27.5 27.5 0 0 1 0-55h89a27.5 27.5 0 1 1 0 55z" fill="#1060C1" p-id="1892"></path><path d="M831 472.73h-65.62a86.3 86.3 0 0 1-86.2-86.2v-103a27.5 27.5 0 0 1 55 0v103a31.23 31.23 0 0 0 31.2 31.2H831a27.5 27.5 0 0 1 0 55z" fill="#1060C1" p-id="1893"></path></svg>