<?xml version="1.0" standalone="no"?><!DOCTYPE svg PUBLIC "-//W3C//DTD SVG 1.1//EN" "http://www.w3.org/Graphics/SVG/1.1/DTD/svg11.dtd"><svg t="1701520895215" class="icon" viewBox="0 0 1024 1024" version="1.1" xmlns="http://www.w3.org/2000/svg" p-id="1571" xmlns:xlink="http://www.w3.org/1999/xlink" width="200" height="200"><path d="M659.68 612.05a27.79 27.79 0 0 1-22.19-25.32c-0.71-9.93 1-18.37 3.17-21.49 0 0-3.67 9.78 0.12-0.29s1.34-19.51 23.67-55.05c24.21-38.52 28.24-82.74 28.39-84.45V319.2c0.46-2.33 6.87-39.55-43.33-77.63h-0.07c-44.23-29.83-71.69-33.22-91.77-33.47-20.09 0.25-47.54 3.64-91.77 33.47h-0.07c-50.19 38.07-43.8 75.29-43.34 77.64v106.24c0.16 1.85 4.22 46 28.38 84.44 22.34 35.54 19.9 45 23.68 55.05s0.11 0.29 0.11 0.29c1.71 2.46 3.88 10.14 3.89 19.74a27.34 27.34 0 0 1-22.16 26.76c-120.73 23.42-192.68 97.09-204.26 184v23.48c0 43.06 42.25 78.28 93.89 78.28h422.56c51.64 0 93.89-35.22 93.89-78.28v-19.57c-11.53-89.75-82.79-163.75-202.79-187.59z" fill="#B9D6F9" p-id="1572"></path><path d="M705.09 868.91H282.58c-66.94 0-121.39-47.45-121.39-105.78v-23.48a27.7 27.7 0 0 1 0.24-3.64c6.69-50.24 30.8-96 69.7-132.27 39.56-36.91 93.66-62.86 156.48-75.07a34.19 34.19 0 0 0-0.49-5.52 0.77 0.77 0 0 0-0.07-0.16l-0.24-0.65a1.86 1.86 0 0 0-0.1-0.25l-1.34-3.57a83.55 83.55 0 0 1-3.17-11.2c-1.63-7.12-3.65-16-18.05-38.89-27.17-43.23-32-91.34-32.49-96.69 0-0.39-0.06-0.79-0.07-1.19v-0.12V265.35c-0.8-6.39-1.34-19.52 4-36 7.8-24.23 24.7-46.34 50.23-65.7l0.39-0.29 0.2-0.15 0.72-0.51c49.06-33.08 81.52-37.85 106.81-38.16h0.67c25.29 0.31 57.75 5.08 106.81 38.16l0.79 0.55 0.08 0.07c0.15 0.1 0.3 0.22 0.45 0.33 25.53 19.37 42.43 41.47 50.22 65.71 5.31 16.51 4.77 29.63 4 36v103.9c0 0.86 0 1.7-0.12 2.56-0.5 5.75-5.42 53.56-32.48 96.62-14.4 22.91-16.42 31.77-18 38.89a82.08 82.08 0 0 1-3.17 11.2l-1.35 3.58c0 0.08-0.06 0.17-0.1 0.26v0.07a32.05 32.05 0 0 0-0.13 6.24 0.47 0.47 0 0 0 0.14 0.32c62.71 12.46 116.54 38.79 155.68 76.15 38.53 36.78 62.39 83.43 69 134.91a27.3 27.3 0 0 1 0.22 3.5v19.57c-0.17 58.33-54.65 105.78-121.56 105.78z m-488.9-127.36v21.58c0 27.52 30.4 50.78 66.39 50.78h422.51c36 0 66.39-23.26 66.39-50.78v-17.75C760.2 663.86 692.8 603.2 590.83 582.94a55.41 55.41 0 0 1-44.26-50.34c-0.47-6.64-0.76-22.16 5.29-34.48 0.22-0.82 0.47-1.91 0.72-3 2.9-12.69 7.22-27.46 25.1-55.9 18.82-29.95 23.48-65.11 24.17-71.25V263.39c0-0.88 0-1.75 0.12-2.63v-0.28c0.07-0.74 0.18-1.48 0.31-2.22 0.21-1.89 1.89-24.19-32.34-50.41-36.35-24.39-57.93-28.09-75.79-28.35-12.14 0.15-34.51 0.68-75.76 28.35-34.23 26.22-32.55 48.53-32.34 50.41 0.14 0.74 0.24 1.48 0.31 2.22v0.23a26.91 26.91 0 0 1 0.13 2.69v104.53c0.69 6.16 5.34 41.3 24.16 71.25 17.88 28.44 22.2 43.21 25.1 55.91 0.26 1.15 0.52 2.27 0.74 3.1 5.55 11.43 6.05 26 6.06 30.67a54.86 54.86 0 0 1-44.43 53.79c-52.71 10.23-97.51 31.43-129.53 61.3-28.97 27.05-47.08 60.79-52.4 97.6zM602 366.82a1.23 1.23 0 0 1 0 0.19v-0.19z m-216-109c0 0.11 0.05 0.23 0.07 0.34a3.06 3.06 0 0 0-0.07-0.31z m216.39 0c0 0.06 0 0.18-0.07 0.35 0.02-0.1 0.05-0.17 0.07-0.33z" fill="#1060C1" p-id="1573"></path></svg>